# xmcd
#
# Track frame offsets: 
#        150
#        12992
#        23227
#        36650
#        54610
#        63857
#        82237
#        97150
#        107680
#        124512
#        137387
#        144330
#
# Disc length: 2087 seconds
#
# Revision: 1
# Processed by: cddbd v1.5.2PL0 Copyright (c) Steve Scherf et al.
# Submitted via: ExactAudioCopy v0.99pb5
#
DISCID=a408250c
DTITLE=Χατζιδάκις - Μυθολογία
DYEAR=1965
DGENRE=Ελληνικά
TTITLE0=Τρείς κοπέλες απ' τη Θήβα
TTITLE1=Ο Ροβινσών στη Μύκονο
TTITLE2=Ο Ιρλανδόςκι ο Ιουδαίος
TTITLE3=Τα καλοτάξιδα πουλιά
TTITLE4=Ορέστης
TTITLE5=Αερικό
TTITLE6=Με την Ελλάδα καραβοκύρη
TTITLE7=Ο Τζώνης ο μπόγιας
TTITLE8=Ήσουν παιδί σαν τον Χριστό
TTITLE9=Ένας ευαίσθητος ληστής
TTITLE10=Νυχτερινές ειδήσεις
TTITLE11=Lamento (Θρήνος)
EXTD=
EXTT0=
EXTT1=
EXTT2=
EXTT3=
EXTT4=
EXTT5=
EXTT6=
EXTT7=
EXTT8=
EXTT9=
EXTT10=
EXTT11=
PLAYORDER=
